:FULLY-SPECIFIED
:FORCE-ALL-JOINTS-BE-3DOF
:DEGREES
97
root 9.40665 16.2928 -23.653 3.3379 -2.32564 3.81586
lfemur -5.10329 0.469408 -29.318
ltibia 21.5154 0 0
lfoot -18.4381 7.38452 0
ltoes -0.897712 0 0
rfemur -32.9628 3.40832 15.9753
rtibia 46.344 0 0
rfoot -20.7959 -10.6863 0
rtoes -18.6273 0 0
lowerback -6.97427 -2.06944 -4.61442
upperback -0.285972 -2.47509 2.17198
thorax 3.91133 -1.33448 4.59984
lowerneck -21.0382 -4.92334 -12.6237
upperneck 19.7564 -5.5519 11.2405
head 10.4944 -2.21187 5.30847
lclavicle -1.28092e-14 2.8625e-14 0
lhumerus -20.563 -21.3389 87.3059
lradius 34.9489 0 0
lwrist 8.70795 0 0
lhand -15.5568 -25.3211 0
lfingers 7.12502 0 0
lthumb 10.6277 4.39014 0
rclavicle -1.28092e-14 2.8625e-14 0
rhumerus -43.5016 11.8454 -87.1022
rradius 38.2832 0 0
rwrist -21.7116 0 0
rhand -30.6228 -23.9346 0
rfingers 7.12502 0 0
rthumb -3.91891 -53.8783 0
98
root 9.4073 16.2931 -23.5272 3.30708 -1.93413 3.83058
lfemur -3.98271 0.43469 -29.2933
ltibia 20.3382 -0 0
lfoot -18.224 7.09828 -0.00267387
ltoes -1.14426 0 0
rfemur -33.344 3.81843 15.6585
rtibia 45.0808 -0 0
rfoot -20.8015 -10.2821 -9.9362e-05
rtoes -18.2782 0 0
lowerback -7.04091 -2.12644 -4.54386
upperback -0.28652 -2.55181 2.12395
thorax 3.95089 -1.37167 4.4985
lowerneck -20.8577 -4.95721 -12.678
upperneck 19.8493 -5.61126 11.2368
head 10.5043 -2.24962 5.31009
lclavicle -1.4634e-14 2.41192e-14 0
lhumerus -20.5975 -21.8182 87.4123
lradius 35.5198 -0 0
lwrist 9.12157 0 0
lhand -15.5326 -25.403 -8.64803e-05
lfingers 7.12502 0 0
lthumb 10.651 4.30703 -8.46151e-05
rclavicle -1.4634e-14 2.41192e-14 0
rhumerus -43.6586 11.6465 -87.0254
rradius 38.1378 -0 0
rwrist -21.5744 0 0
rhand -30.4705 -23.9705 -0.000238705
rfingers 7.12502 0 0
rthumb -3.77182 -53.9166 -0.000245915
99
root 9.40796 16.2933 -23.4013 3.27637 -1.54262 3.84509
lfemur -2.86214 0.399495 -29.2692
ltibia 19.1609 -0 0
lfoot -18.0099 6.81204 -0.00427823
ltoes -1.39081 0 0
rfemur -33.7277 4.22643 15.3389
rtibia 43.8177 -0 0
rfoot -20.8072 -9.87784 -0.000158981
rtoes -17.9291 0 0
lowerback -7.10762 -2.18335 -4.47324
upperback -0.287003 -2.62854 2.07592
thorax 3.99052 -1.40879 4.39713
lowerneck -20.6771 -4.99092 -12.7325
upperneck 19.9423 -5.67062 11.2331
head 10.5141 -2.28738 5.3117
lclavicle -1.64588e-14 1.96134e-14 0
lhumerus -20.6331 -22.2975 87.5194
lradius 36.0906 -0 0
lwrist 9.5352 0 0
lhand -15.5084 -25.4849 -0.000138369
lfingers 7.12502 0 0
lthumb 10.6744 4.22392 -0.000135384
rclavicle -1.64588e-14 1.96134e-14 0
rhumerus -43.8157 11.4479 -86.948
rradius 37.9923 -0 0
rwrist -21.4373 0 0
rhand -30.3182 -24.0064 -0.000381929
rfingers 7.12502 0 0
rthumb -3.62473 -53.9549 -0.000393464
100
root 9.40861 16.2936 -23.2754 3.24576 -1.1511 3.85938
lfemur -1.7416 0.363837 -29.2459
ltibia 17.9837 -0 0
lfoot -17.7959 6.5258 -0.00481303
ltoes -1.63736 0 0
rfemur -34.1139 4.63227 15.0163
rtibia 42.5545 -0 0
rfoot -20.8128 -9.47361 -0.000178855
rtoes -17.58 0 0
lowerback -7.1744 -2.24019 -4.40254
upperback -0.287422 -2.70526 2.02788
thorax 4.03022 -1.44584 4.29573
lowerneck -20.4965 -5.02445 -12.7871
upperneck 20.0353 -5.72997 11.2292
head 10.524 -2.32513 5.31331
lclavicle -1.82836e-14 1.51076e-14 0
lhumerus -20.6697 -22.7767 87.6272
lradius 36.6615 -0 0
lwrist 9.94882 0 0
lhand -15.4842 -25.5668 -0.000155665
lfingers 7.12502 0 0
lthumb 10.6977 4.14081 -0.000152307
rclavicle -1.82836e-14 1.51076e-14 0
rhumerus -43.973 11.2495 -86.8702
rradius 37.8469 -0 0
rwrist -21.3001 0 0
rhand -30.1658 -24.0424 -0.000429671
rfingers 7.12502 0 0
rthumb -3.47764 -53.9933 -0.000442648
101
root 9.40926 16.2939 -23.1496 3.21526 -0.759571 3.87347
lfemur -0.621076 0.327729 -29.2232
ltibia 16.8064 -0 0
lfoot -17.5818 6.23955 -0.00427823
ltoes -1.88391 0 0
rfemur -34.5026 5.03593 14.6908
rtibia 41.2914 -0 0
rfoot -20.8184 -9.06938 -0.000158981
rtoes -17.2308 0 0
lowerback -7.24126 -2.29694 -4.33178
upperback -0.287776 -2.78198 1.97984
thorax 4.06998 -1.48281 4.19431
lowerneck -20.3159 -5.05781 -12.8417
upperneck 20.1283 -5.78932 11.2252
head 10.5338 -2.36289 5.31491
lclavicle -2.01083e-14 1.06019e-14 0
lhumerus -20.7075 -23.2558 87.7357
lradius 37.2324 -0 0
lwrist 10.3624 0 0
lhand -15.46 -25.6487 -0.000138369
lfingers 7.12502 0 0
lthumb 10.721 4.0577 -0.000135384
rclavicle -2.01083e-14 1.06019e-14 0
rhumerus -44.1305 11.0512 -86.7918
rradius 37.7015 -0 0
rwrist -21.1629 0 0
rhand -30.0135 -24.0783 -0.000381929
rfingers 7.12502 0 0
rthumb -3.33056 -54.0316 -0.000393464
102
root 9.40992 16.2941 -23.0237 3.18485 -0.368034 3.88734
lfemur 0.499431 0.291186 -29.2013
ltibia 15.6291 -0 0
lfoot -17.3677 5.95331 -0.00267387
ltoes -2.13046 0 0
rfemur -34.8939 5.43737 14.3623
rtibia 40.0282 -0 0
rfoot -20.8241 -8.66515 -9.9362e-05
rtoes -16.8817 0 0
lowerback -7.30819 -2.3536 -4.26094
upperback -0.288066 -2.85871 1.9318
thorax 4.10981 -1.51972 4.09286
lowerneck -20.1352 -5.091 -12.8965
upperneck 20.2213 -5.84866 11.2212
head 10.5437 -2.40064 5.3165
lclavicle -2.19331e-14 6.09607e-15 0
lhumerus -20.7464 -23.7349 87.8449
lradius 37.8032 -0 0
lwrist 10.7761 0 0
lhand -15.4358 -25.7306 -8.64803e-05
lfingers 7.12502 0 0
lthumb 10.7444 3.97459 -8.46151e-05
rclavicle -2.19331e-14 6.09607e-15 0
rhumerus -44.2882 10.8532 -86.713
rradius 37.556 -0 0
rwrist -21.0258 0 0
rhand -29.8612 -24.1142 -0.000238705
rfingers 7.12502 0 0
rthumb -3.18347 -54.0699 -0.000245915
103
root 9.41057 16.2944 -22.8979 3.15454 0.0235091 3.90101
lfemur 1.61992 0.25422 -29.1801
ltibia 14.4519 0 0
lfoot -17.1536 5.66707 0
ltoes -2.37701 0 0
rfemur -35.2877 5.83656 14.0309
rtibia 38.7651 0 0
rfoot -20.8297 -8.26092 0
rtoes -16.5326 0 0
lowerback -7.37519 -2.41019 -4.19004
upperback -0.288292 -2.93543 1.88376
thorax 4.1497 -1.55656 3.99138
lowerneck -19.9545 -5.12402 -12.9514
upperneck 20.3143 -5.90799 11.217
head 10.5535 -2.4384 5.31809
lclavicle -2.37579e-14 1.59028e-15 0
lhumerus -20.7865 -24.2139 87.9549
lradius 38.3741 0 0
lwrist 11.1897 0 0
lhand -15.4116 -25.8125 0
lfingers 7.12502 0 0
lthumb 10.7677 3.89148 0
rclavicle -2.37579e-14 1.59028e-15 0
rhumerus -44.446 10.6554 -86.6336
rradius 37.4106 0 0
rwrist -20.8886 0 0
rhand -29.7089 -24.1501 0
rfingers 7.12502 0 0
rthumb -3.03638 -54.1082 0
104
root 9.40793 16.2863 -22.7662 3.24482 0.347417 3.97448
lfemur 3.27757 0.280884 -29.1783
ltibia 12.0432 -0 0
lfoot -16.4017 5.33512 -0.0108953
ltoes -2.57154 0 0
rfemur -35.7214 6.27558 13.5168
rtibia 37.6155 -0 0
rfoot -20.8883 -8.04902 -0.000542112
rtoes -17.1424 0 0
lowerback -7.39034 -2.49997 -4.40205
upperback -0.404397 -3.04196 1.9735
thorax 4.06653 -1.60991 4.19525
lowerneck -19.9626 -5.09365 -12.9886
upperneck 20.5577 -5.85381 11.1493
head 10.6352 -2.42593 5.31613
lclavicle -2.53808e-14 3.04803e-15 0
lhumerus -21.1837 -24.3939 88.4114
lradius 38.8533 -0 0
lwrist 11.4208 0 0
lhand -15.31 -25.7092 0.000457944
lfingers 7.12502 0 0
lthumb 10.8657 3.98955 0.00041934
rclavicle -2.53808e-14 3.04803e-15 0
rhumerus -44.7776 10.7542 -86.5271
rradius 37.3247 -0 0
rwrist -20.7305 0 0
rhand -29.8173 -24.2306 0.00038085
rfingers 7.12502 0 0
rthumb -3.1411 -54.187 0.000360223
105
root 9.40529 16.2781 -22.6346 3.33553 0.671208 4.04847
lfemur 4.93522 0.307484 -29.1757
ltibia 9.6346 -0 0
lfoot -15.6497 5.00306 -0.0174333
ltoes -2.76607 0 0
rfemur -36.1594 6.7107 12.9989
rtibia 36.4658 -0 0
rfoot -20.947 -7.83713 -0.000867382
rtoes -17.7521 0 0
lowerback -7.40516 -2.5898 -4.61405
upperback -0.52068 -3.14831 2.06347
thorax 3.98318 -1.66297 4.3992
lowerneck -19.9706 -5.06329 -13.0258
upperneck 20.8009 -5.79935 11.0819
head 10.717 -2.41346 5.31418
lclavicle -2.70037e-14 4.50579e-15 0
lhumerus -21.583 -24.571 88.87
lradius 39.3325 -0 0
lwrist 11.6518 0 0
lhand -15.2084 -25.6059 0.000732712
lfingers 7.12502 0 0
lthumb 10.9637 4.08761 0.000670944
rclavicle -2.70037e-14 4.50579e-15 0
rhumerus -45.1092 10.8536 -86.4211
rradius 37.2387 -0 0
rwrist -20.5725 0 0
rhand -29.9258 -24.3111 0.000609361
rfingers 7.12502 0 0
rthumb -3.24583 -54.2659 0.000576358
106
root 9.40266 16.27 -22.5029 3.42666 0.994881 4.12297
lfemur 6.59288 0.334 -29.1724
ltibia 7.22595 -0 0
lfoot -14.8977 4.67094 -0.0196128
ltoes -2.9606 0 0
rfemur -36.6017 7.14185 12.4773
rtibia 35.3162 -0 0
rfoot -21.0056 -7.62523 -0.000975806
rtoes -18.3619 0 0
lowerback -7.41964 -2.67969 -4.82605
upperback -0.637142 -3.25448 2.15367
thorax 3.89963 -1.71573 4.60323
lowerneck -19.9787 -5.03293 -13.063
upperneck 21.0441 -5.7446 11.0147
head 10.7987 -2.40099 5.31225
lclavicle -2.86266e-14 5.96354e-15 0
lhumerus -21.9844 -24.7452 89.3306
lradius 39.8117 -0 0
lwrist 11.8829 0 0
lhand -15.1068 -25.5026 0.000824301
lfingers 7.12502 0 0
lthumb 11.0617 4.18568 0.000754813
rclavicle -2.86266e-14 5.96354e-15 0
rhumerus -45.4407 10.9536 -86.3158
rradius 37.1527 -0 0
rwrist -20.4144 0 0
rhand -30.0343 -24.3916 0.000685531
rfingers 7.12502 0 0
rthumb -3.35055 -54.3447 0.000648403
107
root 9.40002 16.2618 -22.3713 3.51822 1.31843 4.198
lfemur 8.25055 0.360407 -29.1683
ltibia 4.8173 -0 0
lfoot -14.1458 4.33882 -0.0174333
ltoes -3.15512 0 0
rfemur -37.0485 7.56897 11.9517
rtibia 34.1665 -0 0
rfoot -21.0642 -7.41333 -0.000867382
rtoes -18.9717 0 0
lowerback -7.4338 -2.76963 -5.03803
upperback -0.753784 -3.36046 2.24409
thorax 3.81589 -1.76819 4.80734
lowerneck -19.9868 -5.00257 -13.1002
upperneck 21.2872 -5.68957 10.9477
head 10.8804 -2.38852 5.31034
lclavicle -3.02494e-14 7.42129e-15 0
lhumerus -22.388 -24.9165 89.7931
lradius 40.2909 -0 0
lwrist 12.1139 0 0
lhand -15.0052 -25.3993 0.000732712
lfingers 7.12502 0 0
lthumb 11.1597 4.28375 0.000670944
rclavicle -3.02494e-14 7.42129e-15 0
rhumerus -45.7721 11.0542 -86.2109
rradius 37.0668 -0 0
rwrist -20.2563 0 0
rhand -30.1427 -24.472 0.000609361
rfingers 7.12502 0 0
rthumb -3.45527 -54.4235 0.000576358
108
root 9.39738 16.2537 -22.2397 3.61022 1.64187 4.27356
lfemur 9.90822 0.386685 -29.1634
ltibia 2.40865 -0 0
lfoot -13.3938 4.00676 -0.0108953
ltoes -3.34965 0 0
rfemur -37.4996 7.992 11.4223
rtibia 33.0168 -0 0
rfoot -21.1229 -7.20144 -0.000542112
rtoes -19.5814 0 0
lowerback -7.44762 -2.85962 -5.25001
upperback -0.870607 -3.46626 2.33474
thorax 3.73196 -1.82036 5.01154
lowerneck -19.995 -4.97222 -13.1374
upperneck 21.5302 -5.63425 10.881
head 10.9622 -2.37604 5.30845
lclavicle -3.18723e-14 8.87905e-15 0
lhumerus -22.7936 -25.0848 90.2576
lradius 40.7701 -0 0
lwrist 12.345 0 0
lhand -14.9036 -25.296 0.000457944
lfingers 7.12502 0 0
lthumb 11.2577 4.38181 0.00041934
rclavicle -3.18723e-14 8.87905e-15 0
rhumerus -46.1034 11.1554 -86.1066
rradius 36.9809 -0 0
rwrist -20.0983 0 0
rhand -30.2512 -24.5525 0.00038085
rfingers 7.12502 0 0
rthumb -3.56 -54.5024 0.000360223
